# xmcd CD database file
#
# Track frame offsets:
#	150
#	22065
#	46077
#
# Disc length: 933 seconds
#
# Revision: 0
# Processed by: cddbd v1.5PL3 Copyright (c) Steve Scherf et al.
# Submitted via: CDex 1.50Beta7
#
DISCID=1c03a303
DTITLE=ZEPPET STORE - DISTANCE
DYEAR=2000
DGENRE=Rock
TTITLE0=DISTANCE
TTITLE1=VEX
TTITLE2=EMOTION ram jam warld remix
EXTD=YEAR: 2000
EXTT0=
EXTT1=
EXTT2=
PLAYORDER=
